# Blender 5.0.1
# www.blender.org
mtllib CaixaDeCorreio.mtl
o Cube
v 0.443196 2.857325 -0.726754
v 0.438087 2.019088 -0.726754
v 0.443196 2.857325 0.726754
v 0.438087 2.019088 0.726754
v 0.000000 2.019088 -0.726754
v 0.000000 3.077029 0.726754
v 0.000000 2.019088 0.726754
v 0.000000 3.077029 -0.726754
v -0.443196 2.857325 -0.726754
v -0.438087 2.019088 -0.726754
v -0.443196 2.857325 0.726754
v -0.438087 2.019088 0.726754
vn -0.0000 -1.0000 -0.0000
vn 1.0000 -0.0061 -0.0000
vn -0.0000 -0.0000 -1.0000
vn -0.0000 -0.0000 1.0000
vn 0.4441 0.8960 -0.0000
vn -1.0000 -0.0061 -0.0000
vn -0.4441 0.8960 -0.0000
vt 0.250000 0.500000
vt 0.375000 0.500000
vt 0.375000 0.750000
vt 0.250000 0.750000
vt 0.625000 0.500000
vt 0.625000 0.750000
vt 0.375000 0.375000
vt 0.625000 0.375000
vt 0.625000 0.875000
vt 0.375000 0.875000
vt 0.750000 0.500000
vt 0.750000 0.750000
s 0
usemtl Material
f 5/1/1 2/2/1 4/3/1 7/4/1
f 2/2/2 1/5/2 3/6/2 4/3/2
f 5/7/3 8/8/3 1/5/3 2/2/3
f 4/3/4 3/6/4 6/9/4 7/10/4
f 1/5/5 8/11/5 6/12/5 3/6/5
f 5/1/1 7/4/1 12/3/1 10/2/1
f 10/2/6 12/3/6 11/6/6 9/5/6
f 5/7/3 10/2/3 9/5/3 8/8/3
f 12/3/4 7/10/4 6/9/4 11/6/4
f 9/5/7 11/6/7 6/12/7 8/11/7
o Cilindro
v 0.000000 0.032644 -0.200274
v 0.000000 2.070182 -0.200274
v 0.173442 0.032644 -0.100137
v 0.173442 2.070182 -0.100137
v 0.173442 0.032644 0.100137
v 0.173442 2.070182 0.100137
v 0.000000 0.032644 0.200274
v 0.000000 2.070182 0.200274
v -0.173442 0.032644 0.100137
v -0.173442 2.070182 0.100137
v -0.173442 0.032644 -0.100137
v -0.173442 2.070182 -0.100137
vn 0.5000 -0.0000 -0.8660
vn 1.0000 -0.0000 -0.0000
vn 0.5000 -0.0000 0.8660
vn -0.5000 -0.0000 0.8660
vn -0.0000 1.0000 -0.0000
vn -1.0000 -0.0000 -0.0000
vn -0.5000 -0.0000 -0.8660
vn -0.0000 -1.0000 -0.0000
vt 1.000000 0.500000
vt 1.000000 1.000000
vt 0.833333 1.000000
vt 0.833333 0.500000
vt 0.666667 1.000000
vt 0.666667 0.500000
vt 0.500000 1.000000
vt 0.500000 0.500000
vt 0.333333 1.000000
vt 0.333333 0.500000
vt 0.457846 0.370000
vt 0.250000 0.490000
vt 0.042154 0.370000
vt 0.042154 0.130000
vt 0.250000 0.010000
vt 0.457846 0.130000
vt 0.166667 1.000000
vt 0.166667 0.500000
vt -0.000000 1.000000
vt -0.000000 0.500000
vt 0.750000 0.490000
vt 0.957846 0.370000
vt 0.957846 0.130000
vt 0.750000 0.010000
vt 0.542154 0.130000
vt 0.542154 0.370000
s 0
usemtl Materiais
f 13/13/8 14/14/8 16/15/8 15/16/8
f 15/16/9 16/15/9 18/17/9 17/18/9
f 17/18/10 18/17/10 20/19/10 19/20/10
f 19/20/11 20/19/11 22/21/11 21/22/11
f 16/23/12 14/24/12 24/25/12 22/26/12 20/27/12 18/28/12
f 21/22/13 22/21/13 24/29/13 23/30/13
f 23/30/14 24/29/14 14/31/14 13/32/14
f 13/33/15 15/34/15 17/35/15 19/36/15 21/37/15 23/38/15
o Plano
v 0.450225 3.516662 0.597273
v 0.450225 2.661355 0.597273
v 0.450225 3.516662 0.420106
v 0.450225 2.661355 0.420106
vn 1.0000 -0.0000 -0.0000
vt 0.000000 0.000000
vt 1.000000 0.000000
vt 1.000000 1.000000
vt 0.000000 1.000000
s 0
usemtl Materiais.002
f 25/39/16 26/40/16 28/41/16 27/42/16
o Plano.001
v 0.450225 3.518120 0.480049
v 0.450225 3.233792 0.480049
v 0.450225 3.518120 -0.153888
v 0.450225 3.233792 -0.153888
vn 1.0000 -0.0000 -0.0000
vt 0.000000 0.000000
vt 1.000000 0.000000
vt 1.000000 1.000000
vt 0.000000 1.000000
s 0
usemtl Materiais.002
f 29/43/17 30/44/17 32/45/17 31/46/17
