# Blender 5.0.1
# www.blender.org
mtllib TabuaDePo.mtl
o Cubo.002
v -0.824866 -0.134350 0.668155
v -0.824866 0.517196 0.668155
v -0.824866 -0.134350 0.016609
v -0.824866 0.517196 0.016609
v -0.173320 -0.134350 0.668155
v -0.173320 0.517196 0.668155
v -0.173320 -0.134350 0.016609
v -0.173320 0.517196 0.016609
v -0.711530 -0.006944 -0.063589
v -0.711530 0.644602 -0.063589
v -0.711530 -0.006944 -0.715135
v -0.711530 0.644602 -0.715135
v -0.059984 -0.006944 -0.063589
v -0.059984 0.644602 -0.063589
v -0.059984 -0.006944 -0.715135
v -0.059984 0.644602 -0.715135
v 0.116409 -0.049447 -0.063589
v 0.116409 0.602098 -0.063589
v 0.116409 -0.049447 -0.715135
v 0.116409 0.602098 -0.715135
v 0.767955 -0.049447 -0.063589
v 0.767955 0.602098 -0.063589
v 0.767955 -0.049447 -0.715135
v 0.767955 0.602098 -0.715135
v 0.003073 -0.176853 0.668155
v 0.003073 0.474692 0.668155
v 0.003073 -0.176853 0.016609
v 0.003073 0.474692 0.016609
v 0.654619 -0.176853 0.668155
v 0.654619 0.474692 0.668155
v 0.654619 -0.176853 0.016609
v 0.654619 0.474692 0.016609
v -0.822985 -0.132469 0.666274
v -0.822985 0.515315 0.666274
v -0.822985 -0.132469 0.018490
v -0.822985 0.515315 0.018490
v -0.175201 -0.132469 0.666274
v -0.175201 0.515315 0.666274
v -0.175201 -0.132469 0.018490
v -0.175201 0.515315 0.018490
v -0.709649 -0.005063 -0.065470
v -0.709649 0.642721 -0.065470
v -0.709649 -0.005063 -0.713254
v -0.709649 0.642721 -0.713254
v -0.061865 -0.005063 -0.065470
v -0.061865 0.642721 -0.065470
v -0.061865 -0.005063 -0.713254
v -0.061865 0.642721 -0.713254
v 0.118290 -0.047566 -0.065470
v 0.118290 0.600218 -0.065470
v 0.118290 -0.047566 -0.713254
v 0.118290 0.600218 -0.713254
v 0.766074 -0.047566 -0.065470
v 0.766074 0.600218 -0.065470
v 0.766074 -0.047566 -0.713254
v 0.766074 0.600218 -0.713254
v 0.004954 -0.174973 0.666274
v 0.004954 0.472811 0.666274
v 0.004954 -0.174973 0.018490
v 0.004954 0.472811 0.018490
v 0.652738 -0.174973 0.666274
v 0.652738 0.472811 0.666274
v 0.652738 -0.174973 0.018490
v 0.652738 0.472811 0.018490
v 1.278654 0.489299 -1.278654
v 0.706830 -0.310273 -0.706830
v 1.278654 0.489299 1.278654
v 0.706830 -0.310273 0.706830
v -1.278654 0.489299 -1.278654
v -0.706830 -0.310273 -0.706830
v -1.278654 0.489299 1.278654
v -0.706830 -0.310273 0.706830
v 1.273683 0.496410 -1.273682
v 0.703185 -0.301704 -0.703185
v 1.273683 0.496410 1.273683
v 0.703185 -0.301704 0.703185
v -1.273682 0.496410 -1.273682
v -0.703185 -0.301704 -0.703185
v -1.273682 0.496410 1.273683
v -0.703185 -0.301704 0.703185
v -0.822985 -0.132469 0.666274
v -0.822985 0.515315 0.666274
v -0.822985 -0.132469 0.018490
v -0.822985 0.515315 0.018490
v -0.175201 -0.132469 0.666274
v -0.175201 0.515315 0.666274
v -0.175201 -0.132469 0.018490
v -0.175201 0.515315 0.018490
v -0.709649 -0.005063 -0.065470
v -0.709649 0.642721 -0.065470
v -0.709649 -0.005063 -0.713254
v -0.709649 0.642721 -0.713254
v -0.061865 -0.005063 -0.065470
v -0.061865 0.642721 -0.065470
v -0.061865 -0.005063 -0.713254
v -0.061865 0.642721 -0.713254
v 0.118290 -0.047566 -0.065470
v 0.118290 0.600218 -0.065470
v 0.118290 -0.047566 -0.713254
v 0.118290 0.600218 -0.713254
v 0.766074 -0.047566 -0.065470
v 0.766074 0.600218 -0.065470
v 0.766074 -0.047566 -0.713254
v 0.766074 0.600218 -0.713254
v 0.004954 -0.174973 0.666274
v 0.004954 0.472811 0.666274
v 0.004954 -0.174973 0.018490
v 0.004954 0.472811 0.018490
v 0.652738 -0.174973 0.666274
v 0.652738 0.472811 0.666274
v 0.652738 -0.174973 0.018490
v 0.652738 0.472811 0.018490
v -0.824866 -0.134350 0.668155
v -0.824866 0.517196 0.668155
v -0.824866 -0.134350 0.016609
v -0.824866 0.517196 0.016609
v -0.173320 -0.134350 0.668155
v -0.173320 0.517196 0.668155
v -0.173320 -0.134350 0.016609
v -0.173320 0.517196 0.016609
v -0.711530 -0.006944 -0.063589
v -0.711530 0.644602 -0.063589
v -0.711530 -0.006944 -0.715135
v -0.711530 0.644602 -0.715135
v -0.059984 -0.006944 -0.063589
v -0.059984 0.644602 -0.063589
v -0.059984 -0.006944 -0.715135
v -0.059984 0.644602 -0.715135
v 0.116409 -0.049447 -0.063589
v 0.116409 0.602098 -0.063589
v 0.116409 -0.049447 -0.715135
v 0.116409 0.602098 -0.715135
v 0.767955 -0.049447 -0.063589
v 0.767955 0.602098 -0.063589
v 0.767955 -0.049447 -0.715135
v 0.767955 0.602098 -0.715135
v 0.003073 -0.176853 0.668155
v 0.003073 0.474692 0.668155
v 0.003073 -0.176853 0.016609
v 0.003073 0.474692 0.016609
v 0.654619 -0.176853 0.668155
v 0.654619 0.474692 0.668155
v 0.654619 -0.176853 0.016609
v 0.654619 0.474692 0.016609
v 1.276350 0.489313 -1.276350
v 0.705642 -0.307482 -0.705642
v 1.276350 0.489313 1.276350
v 0.705642 -0.307482 0.705642
v -1.276351 0.489313 -1.276350
v -0.705642 -0.307482 -0.705642
v -1.276351 0.489313 1.276350
v -0.705642 -0.307482 0.705642
v 1.272944 0.493324 -1.272944
v 0.704372 -0.304495 -0.704372
v 1.272944 0.493324 1.272944
v 0.704372 -0.304495 0.704372
v -1.272944 0.493324 -1.272944
v -0.704372 -0.304495 -0.704372
v -1.272944 0.493324 1.272944
v -0.704372 -0.304495 0.704372
vn -1.0000 -0.0000 -0.0000
vn -0.0000 -0.0000 -1.0000
vn 1.0000 -0.0000 -0.0000
vn -0.0000 -0.0000 1.0000
vn -0.0000 -1.0000 -0.0000
vn -0.0000 1.0000 -0.0000
vn -0.0000 -0.5817 0.8134
vn -0.8134 -0.5817 -0.0000
vn 0.8134 -0.5817 -0.0000
vn -0.0000 -0.5817 -0.8134
vn -0.0000 0.5815 -0.8135
vn 0.8135 0.5815 -0.0000
vn -0.8135 0.5815 -0.0000
vn -0.0000 0.5815 0.8135
vn -0.0000 0.5730 0.8196
vn 0.8196 0.5730 -0.0000
vn -0.8196 0.5730 -0.0000
vn -0.0000 0.5730 -0.8196
vn -0.0000 0.5823 -0.8130
vn 0.8130 0.5823 -0.0000
vn -0.8130 0.5823 -0.0000
vn -0.0000 0.5823 0.8130
vn -0.0000 -0.5804 0.8144
vn -0.8144 -0.5804 -0.0000
vn 0.8144 -0.5804 -0.0000
vn -0.0000 -0.5804 -0.8144
vn -0.0000 -0.6474 -0.7622
vn -0.7622 -0.6474 -0.0000
vn 0.7622 -0.6474 -0.0000
vn -0.0000 -0.6474 0.7622
vt 0.375000 0.000000
vt 0.625000 0.000000
vt 0.625000 0.250000
vt 0.375000 0.250000
vt 0.625000 0.500000
vt 0.375000 0.500000
vt 0.625000 0.750000
vt 0.375000 0.750000
vt 0.625000 1.000000
vt 0.375000 1.000000
vt 0.125000 0.500000
vt 0.125000 0.750000
vt 0.875000 0.500000
vt 0.875000 0.750000
vt 0.000000 0.000000
s 0
usemtl Materiais.001
f 1/1/1 2/2/1 4/3/1 3/4/1
f 3/4/2 4/3/2 8/5/2 7/6/2
f 7/6/3 8/5/3 6/7/3 5/8/3
f 5/8/4 6/7/4 2/9/4 1/10/4
f 3/11/5 7/6/5 5/8/5 1/12/5
f 8/5/6 4/13/6 2/14/6 6/7/6
f 9/1/1 10/2/1 12/3/1 11/4/1
f 11/4/2 12/3/2 16/5/2 15/6/2
f 15/6/3 16/5/3 14/7/3 13/8/3
f 13/8/4 14/7/4 10/9/4 9/10/4
f 11/11/5 15/6/5 13/8/5 9/12/5
f 16/5/6 12/13/6 10/14/6 14/7/6
f 17/1/1 18/2/1 20/3/1 19/4/1
f 19/4/2 20/3/2 24/5/2 23/6/2
f 23/6/3 24/5/3 22/7/3 21/8/3
f 21/8/4 22/7/4 18/9/4 17/10/4
f 19/11/5 23/6/5 21/8/5 17/12/5
f 24/5/6 20/13/6 18/14/6 22/7/6
f 25/1/1 26/2/1 28/3/1 27/4/1
f 27/4/2 28/3/2 32/5/2 31/6/2
f 31/6/3 32/5/3 30/7/3 29/8/3
f 29/8/4 30/7/4 26/9/4 25/10/4
f 27/11/5 31/6/5 29/8/5 25/12/5
f 32/5/6 28/13/6 26/14/6 30/7/6
f 33/1/3 35/4/3 36/3/3 34/2/3
f 35/4/4 39/6/4 40/5/4 36/3/4
f 39/6/1 37/8/1 38/7/1 40/5/1
f 37/8/2 33/10/2 34/9/2 38/7/2
f 35/11/6 33/12/6 37/8/6 39/6/6
f 40/5/5 38/7/5 34/14/5 36/13/5
f 41/1/3 43/4/3 44/3/3 42/2/3
f 43/4/4 47/6/4 48/5/4 44/3/4
f 47/6/1 45/8/1 46/7/1 48/5/1
f 45/8/2 41/10/2 42/9/2 46/7/2
f 43/11/6 41/12/6 45/8/6 47/6/6
f 48/5/5 46/7/5 42/14/5 44/13/5
f 49/1/3 51/4/3 52/3/3 50/2/3
f 51/4/4 55/6/4 56/5/4 52/3/4
f 55/6/1 53/8/1 54/7/1 56/5/1
f 53/8/2 49/10/2 50/9/2 54/7/2
f 51/11/6 49/12/6 53/8/6 55/6/6
f 56/5/5 54/7/5 50/14/5 52/13/5
f 57/1/3 59/4/3 60/3/3 58/2/3
f 59/4/4 63/6/4 64/5/4 60/3/4
f 63/6/1 61/8/1 62/7/1 64/5/1
f 61/8/2 57/10/2 58/9/2 62/7/2
f 59/11/6 57/12/6 61/8/6 63/6/6
f 64/5/5 62/7/5 58/14/5 60/13/5
f 81/1/3 83/4/3 84/3/3 82/2/3
f 83/4/4 87/6/4 88/5/4 84/3/4
f 87/6/1 85/8/1 86/7/1 88/5/1
f 85/8/2 81/10/2 82/9/2 86/7/2
f 83/11/6 81/12/6 85/8/6 87/6/6
f 88/5/5 86/7/5 82/14/5 84/13/5
f 89/1/3 91/4/3 92/3/3 90/2/3
f 91/4/4 95/6/4 96/5/4 92/3/4
f 95/6/1 93/8/1 94/7/1 96/5/1
f 93/8/2 89/10/2 90/9/2 94/7/2
f 91/11/6 89/12/6 93/8/6 95/6/6
f 96/5/5 94/7/5 90/14/5 92/13/5
f 97/1/3 99/4/3 100/3/3 98/2/3
f 99/4/4 103/6/4 104/5/4 100/3/4
f 103/6/1 101/8/1 102/7/1 104/5/1
f 101/8/2 97/10/2 98/9/2 102/7/2
f 99/11/6 97/12/6 101/8/6 103/6/6
f 104/5/5 102/7/5 98/14/5 100/13/5
f 105/1/3 107/4/3 108/3/3 106/2/3
f 107/4/4 111/6/4 112/5/4 108/3/4
f 111/6/1 109/8/1 110/7/1 112/5/1
f 109/8/2 105/10/2 106/9/2 110/7/2
f 107/11/6 105/12/6 109/8/6 111/6/6
f 112/5/5 110/7/5 106/14/5 108/13/5
f 113/1/1 114/2/1 116/3/1 115/4/1
f 115/4/2 116/3/2 120/5/2 119/6/2
f 119/6/3 120/5/3 118/7/3 117/8/3
f 117/8/4 118/7/4 114/9/4 113/10/4
f 115/11/5 119/6/5 117/8/5 113/12/5
f 120/5/6 116/13/6 114/14/6 118/7/6
f 121/1/1 122/2/1 124/3/1 123/4/1
f 123/4/2 124/3/2 128/5/2 127/6/2
f 127/6/3 128/5/3 126/7/3 125/8/3
f 125/8/4 126/7/4 122/9/4 121/10/4
f 123/11/5 127/6/5 125/8/5 121/12/5
f 128/5/6 124/13/6 122/14/6 126/7/6
f 129/1/1 130/2/1 132/3/1 131/4/1
f 131/4/2 132/3/2 136/5/2 135/6/2
f 135/6/3 136/5/3 134/7/3 133/8/3
f 133/8/4 134/7/4 130/9/4 129/10/4
f 131/11/5 135/6/5 133/8/5 129/12/5
f 136/5/6 132/13/6 130/14/6 134/7/6
f 137/1/1 138/2/1 140/3/1 139/4/1
f 139/4/2 140/3/2 144/5/2 143/6/2
f 143/6/3 144/5/3 142/7/3 141/8/3
f 141/8/4 142/7/4 138/9/4 137/10/4
f 139/11/5 143/6/5 141/8/5 137/12/5
f 144/5/6 140/13/6 138/14/6 142/7/6
usemtl Material
f 68/15/7 67/15/7 71/15/7 72/15/7
f 72/15/8 71/15/8 69/15/8 70/15/8
f 70/15/5 66/15/5 68/15/5 72/15/5
f 66/15/9 65/15/9 67/15/9 68/15/9
f 70/15/10 69/15/10 65/15/10 66/15/10
f 76/15/11 80/15/11 79/15/11 75/15/11
f 80/15/12 78/15/12 77/15/12 79/15/12
f 78/15/6 80/15/6 76/15/6 74/15/6
f 74/15/13 76/15/13 75/15/13 73/15/13
f 78/15/14 74/15/14 73/15/14 77/15/14
f 71/15/15 67/15/15 75/15/15 79/15/15
f 67/15/16 65/15/16 73/15/16 75/15/16
f 69/15/17 71/15/17 79/15/17 77/15/17
f 65/15/18 69/15/18 77/15/18 73/15/18
f 148/15/19 152/15/19 151/15/19 147/15/19
f 152/15/20 150/15/20 149/15/20 151/15/20
f 150/15/6 152/15/6 148/15/6 146/15/6
f 146/15/21 148/15/21 147/15/21 145/15/21
f 150/15/22 146/15/22 145/15/22 149/15/22
f 156/15/23 155/15/23 159/15/23 160/15/23
f 160/15/24 159/15/24 157/15/24 158/15/24
f 158/15/5 154/15/5 156/15/5 160/15/5
f 154/15/25 153/15/25 155/15/25 156/15/25
f 158/15/26 157/15/26 153/15/26 154/15/26
f 151/15/27 159/15/27 155/15/27 147/15/27
f 147/15/28 155/15/28 153/15/28 145/15/28
f 149/15/29 157/15/29 159/15/29 151/15/29
f 145/15/30 153/15/30 157/15/30 149/15/30
