# Blender 5.0.1
# www.blender.org
mtllib Balcão.mtl
o Cubo
v 1.851839 -0.064834 1.000000
v 1.966770 0.531317 1.000000
v 0.000000 -0.064834 1.000000
v 0.000000 0.531317 1.000000
v 1.966770 0.794982 1.000000
v 0.000000 0.794982 1.000000
v 2.234517 0.495423 1.272271
v 0.000000 0.495423 1.272271
v 2.234517 0.830876 1.272271
v 0.000000 0.830876 1.272271
v 1.527616 -0.064834 1.000000
v 1.585081 0.531317 1.000000
v 1.585081 0.794982 1.000000
v 1.718955 0.495423 1.272271
v 1.718955 0.830876 1.272271
v 1.851839 -0.064834 0.693122
v 1.966770 0.531317 0.693122
v 0.000000 -0.064834 0.693122
v 1.966770 0.794982 0.693122
v 0.000000 0.794982 0.693122
v 2.234517 0.495423 0.881839
v 2.234517 0.830876 0.881839
v 1.585081 0.794982 0.693122
v 1.527616 -0.064834 0.693122
v 1.318036 -1.193859 1.000000
v 1.642260 -1.193859 1.000000
v 1.318036 -1.193859 0.693122
v 1.642260 -1.193859 0.693122
v 1.851839 -0.064834 0.000000
v 1.966770 0.531317 0.000000
v 0.000000 -0.064834 0.000000
v 1.966770 0.794982 0.000000
v 0.000000 0.794982 0.000000
v 2.234517 0.495423 0.000000
v 2.234517 0.830876 0.000000
v 1.585081 0.794982 0.000000
v 1.527616 -0.064834 0.000000
v -1.851839 -0.064834 1.000000
v -1.966770 0.531317 1.000000
v -1.966770 0.794982 1.000000
v -2.234517 0.495423 1.272271
v -2.234517 0.830876 1.272271
v -1.527616 -0.064834 1.000000
v -1.585081 0.531317 1.000000
v -1.585081 0.794982 1.000000
v -1.718955 0.495423 1.272271
v -1.718955 0.830876 1.272271
v -1.851839 -0.064834 0.693122
v -1.966770 0.531317 0.693122
v -1.966770 0.794982 0.693122
v -2.234517 0.495423 0.881839
v -2.234517 0.830876 0.881839
v -1.585081 0.794982 0.693122
v -1.527616 -0.064834 0.693122
v -1.318036 -1.193859 1.000000
v -1.642260 -1.193859 1.000000
v -1.318036 -1.193859 0.693122
v -1.642260 -1.193859 0.693122
v -1.851839 -0.064834 0.000000
v -1.966770 0.531317 0.000000
v -1.966770 0.794982 0.000000
v -2.234517 0.495423 0.000000
v -2.234517 0.830876 0.000000
v -1.585081 0.794982 0.000000
v -1.527616 -0.064834 0.000000
v 1.851839 -0.064834 -1.000000
v 1.966770 0.531317 -1.000000
v 0.000000 -0.064834 -1.000000
v 0.000000 0.531317 -1.000000
v 1.966770 0.794982 -1.000000
v 0.000000 0.794982 -1.000000
v 2.234517 0.495423 -1.272271
v 0.000000 0.495423 -1.272271
v 2.234517 0.830876 -1.272271
v 0.000000 0.830876 -1.272271
v 1.527616 -0.064834 -1.000000
v 1.585081 0.531317 -1.000000
v 1.585081 0.794982 -1.000000
v 1.718955 0.495423 -1.272271
v 1.718955 0.830876 -1.272271
v 1.851839 -0.064834 -0.693122
v 1.966770 0.531317 -0.693122
v 0.000000 -0.064834 -0.693122
v 1.966770 0.794982 -0.693122
v 0.000000 0.794982 -0.693122
v 2.234517 0.495423 -0.881839
v 2.234517 0.830876 -0.881839
v 1.585081 0.794982 -0.693122
v 1.527616 -0.064834 -0.693122
v 1.318036 -1.193859 -1.000000
v 1.642260 -1.193859 -1.000000
v 1.318036 -1.193859 -0.693122
v 1.642260 -1.193859 -0.693122
v -1.851839 -0.064834 -1.000000
v -1.966770 0.531317 -1.000000
v -1.966770 0.794982 -1.000000
v -2.234517 0.495423 -1.272271
v -2.234517 0.830876 -1.272271
v -1.527616 -0.064834 -1.000000
v -1.585081 0.531317 -1.000000
v -1.585081 0.794982 -1.000000
v -1.718955 0.495423 -1.272271
v -1.718955 0.830876 -1.272271
v -1.851839 -0.064834 -0.693122
v -1.966770 0.531317 -0.693122
v -1.966770 0.794982 -0.693122
v -2.234517 0.495423 -0.881839
v -2.234517 0.830876 -0.881839
v -1.585081 0.794982 -0.693122
v -1.527616 -0.064834 -0.693122
v -1.318036 -1.193859 -1.000000
v -1.642260 -1.193859 -1.000000
v -1.318036 -1.193859 -0.693122
v -1.642260 -1.193859 -0.693122
vn 0.9819 -0.1893 -0.0000
vn -0.0000 -0.0000 -1.0000
vn -0.0000 -0.0000 1.0000
vn -0.0000 1.0000 -0.0000
vn -0.0000 0.9914 -0.1307
vn -0.1329 0.9911 -0.0000
vn -0.0000 -0.9914 -0.1307
vn -0.0000 -1.0000 -0.0000
vn 1.0000 -0.0000 -0.0000
vn -0.1329 -0.9911 -0.0000
vn 0.9832 -0.1825 -0.0000
vn -0.9832 0.1825 -0.0000
vn -0.9819 -0.1893 -0.0000
vn 0.1329 0.9911 -0.0000
vn -1.0000 -0.0000 -0.0000
vn 0.1329 -0.9911 -0.0000
vn -0.9832 -0.1825 -0.0000
vn 0.9832 0.1825 -0.0000
vn -0.0000 0.9914 0.1307
vn -0.0000 -0.9914 0.1307
vt 0.375000 0.711640
vt 0.625000 0.711640
vt 0.625000 0.750000
vt 0.375000 0.750000
vt 0.312500 0.711640
vt 0.375000 0.812500
vt 0.625000 0.812500
vt 0.625000 0.875000
vt 0.375000 0.875000
vt 0.687500 0.711640
vt 0.750000 0.711640
vt 0.750000 0.750000
vt 0.687500 0.750000
vt 0.250000 0.711640
vt 0.312500 0.750000
vt 0.250000 0.750000
vt 0.250000 0.625976
vt 0.312500 0.625976
vt 0.625000 0.625976
vt 0.687500 0.625976
vt 0.750000 0.625976
vt 0.375000 0.625976
vt 0.625000 0.625976
s 0
usemtl Materiais
f 16/1/1 17/2/1 2/3/1 1/4/1
f 24/5/2 16/1/2 28/1/2 27/5/2
f 11/6/3 12/7/3 4/8/3 3/9/3
f 23/10/4 20/11/4 6/12/4 13/13/4
f 13/13/5 6/12/5 10/12/5 15/13/5
f 14/7/3 7/3/3 9/3/3 15/7/3
f 19/2/6 5/3/6 9/3/6 22/2/6
f 12/7/7 2/3/7 7/3/7 14/7/7
f 4/8/7 12/7/7 14/7/7 8/8/7
f 8/8/3 14/7/3 15/7/3 10/8/3
f 5/3/5 13/13/5 15/13/5 9/3/5
f 19/2/4 23/10/4 13/13/4 5/3/4
f 1/4/3 2/3/3 12/7/3 11/6/3
f 18/14/8 24/5/8 11/15/8 3/16/8
f 31/17/8 37/18/8 24/5/8 18/14/8
f 32/19/4 36/20/4 23/10/4 19/2/4
f 32/19/6 19/2/6 22/2/6 35/19/6
f 7/3/9 21/2/9 22/2/9 9/3/9
f 2/3/10 17/2/10 21/2/10 7/3/10
f 36/20/4 33/21/4 20/11/4 23/10/4
f 37/18/8 29/22/8 16/1/8 24/5/8
f 29/22/1 30/23/1 17/2/1 16/1/1
f 27/5/8 28/1/8 26/4/8 25/15/8
f 16/1/11 1/4/11 26/4/11 28/1/11
f 11/15/12 24/5/12 27/5/12 25/15/12
f 1/4/3 11/6/3 25/6/3 26/4/3
f 21/2/9 34/19/9 35/19/9 22/2/9
f 17/2/10 30/23/10 34/19/10 21/2/10
f 48/1/13 38/4/13 39/3/13 49/2/13
f 54/5/2 57/5/2 58/1/2 48/1/2
f 43/6/3 3/9/3 4/8/3 44/7/3
f 53/10/4 45/13/4 6/12/4 20/11/4
f 45/13/5 47/13/5 10/12/5 6/12/5
f 46/7/3 47/7/3 42/3/3 41/3/3
f 50/2/14 52/2/14 42/3/14 40/3/14
f 44/7/7 46/7/7 41/3/7 39/3/7
f 4/8/7 8/8/7 46/7/7 44/7/7
f 8/8/3 10/8/3 47/7/3 46/7/3
f 40/3/5 42/3/5 47/13/5 45/13/5
f 50/2/4 40/3/4 45/13/4 53/10/4
f 38/4/3 43/6/3 44/7/3 39/3/3
f 18/14/8 3/16/8 43/15/8 54/5/8
f 31/17/8 18/14/8 54/5/8 65/18/8
f 61/19/4 50/2/4 53/10/4 64/20/4
f 61/19/14 63/19/14 52/2/14 50/2/14
f 41/3/15 42/3/15 52/2/15 51/2/15
f 39/3/16 41/3/16 51/2/16 49/2/16
f 64/20/4 53/10/4 20/11/4 33/21/4
f 65/18/8 54/5/8 48/1/8 59/22/8
f 59/22/13 48/1/13 49/2/13 60/23/13
f 57/5/8 55/15/8 56/4/8 58/1/8
f 48/1/17 58/1/17 56/4/17 38/4/17
f 43/15/18 55/15/18 57/5/18 54/5/18
f 38/4/3 56/4/3 55/6/3 43/6/3
f 51/2/15 52/2/15 63/19/15 62/19/15
f 49/2/16 51/2/16 62/19/16 60/23/16
f 81/1/1 66/4/1 67/3/1 82/2/1
f 89/5/3 92/5/3 93/1/3 81/1/3
f 76/6/2 68/9/2 69/8/2 77/7/2
f 88/10/4 78/13/4 71/12/4 85/11/4
f 78/13/19 80/13/19 75/12/19 71/12/19
f 79/7/2 80/7/2 74/3/2 72/3/2
f 84/2/6 87/2/6 74/3/6 70/3/6
f 77/7/20 79/7/20 72/3/20 67/3/20
f 69/8/20 73/8/20 79/7/20 77/7/20
f 73/8/2 75/8/2 80/7/2 79/7/2
f 70/3/19 74/3/19 80/13/19 78/13/19
f 84/2/4 70/3/4 78/13/4 88/10/4
f 66/4/2 76/6/2 77/7/2 67/3/2
f 83/14/8 68/16/8 76/15/8 89/5/8
f 31/17/8 83/14/8 89/5/8 37/18/8
f 32/19/4 84/2/4 88/10/4 36/20/4
f 32/19/6 35/19/6 87/2/6 84/2/6
f 72/3/9 74/3/9 87/2/9 86/2/9
f 67/3/10 72/3/10 86/2/10 82/2/10
f 36/20/4 88/10/4 85/11/4 33/21/4
f 37/18/8 89/5/8 81/1/8 29/22/8
f 29/22/1 81/1/1 82/2/1 30/23/1
f 92/5/8 90/15/8 91/4/8 93/1/8
f 81/1/11 93/1/11 91/4/11 66/4/11
f 76/15/12 90/15/12 92/5/12 89/5/12
f 66/4/2 91/4/2 90/6/2 76/6/2
f 86/2/9 87/2/9 35/19/9 34/19/9
f 82/2/10 86/2/10 34/19/10 30/23/10
f 104/1/13 105/2/13 95/3/13 94/4/13
f 110/5/3 104/1/3 114/1/3 113/5/3
f 99/6/2 100/7/2 69/8/2 68/9/2
f 109/10/4 85/11/4 71/12/4 101/13/4
f 101/13/19 71/12/19 75/12/19 103/13/19
f 102/7/2 97/3/2 98/3/2 103/7/2
f 106/2/14 96/3/14 98/3/14 108/2/14
f 100/7/20 95/3/20 97/3/20 102/7/20
f 69/8/20 100/7/20 102/7/20 73/8/20
f 73/8/2 102/7/2 103/7/2 75/8/2
f 96/3/19 101/13/19 103/13/19 98/3/19
f 106/2/4 109/10/4 101/13/4 96/3/4
f 94/4/2 95/3/2 100/7/2 99/6/2
f 83/14/8 110/5/8 99/15/8 68/16/8
f 31/17/8 65/18/8 110/5/8 83/14/8
f 61/19/4 64/20/4 109/10/4 106/2/4
f 61/19/14 106/2/14 108/2/14 63/19/14
f 97/3/15 107/2/15 108/2/15 98/3/15
f 95/3/16 105/2/16 107/2/16 97/3/16
f 64/20/4 33/21/4 85/11/4 109/10/4
f 65/18/8 59/22/8 104/1/8 110/5/8
f 59/22/13 60/23/13 105/2/13 104/1/13
f 113/5/8 114/1/8 112/4/8 111/15/8
f 104/1/17 94/4/17 112/4/17 114/1/17
f 99/15/18 110/5/18 113/5/18 111/15/18
f 94/4/2 99/6/2 111/6/2 112/4/2
f 107/2/15 62/19/15 63/19/15 108/2/15
f 105/2/16 60/23/16 62/19/16 107/2/16
