# Blender 5.0.1
# www.blender.org
mtllib Caixa.mtl
o Cubo
v 1.000000 -1.000000 1.000000
v 1.000000 1.000000 1.000000
v 0.800313 0.800313 0.871157
v 0.800313 -0.800313 0.871157
v 0.000000 -1.000000 1.000000
v 0.000000 1.000000 1.000000
v 0.000000 -0.800313 0.871157
v 0.000000 0.800313 0.871157
v 0.915847 -0.771556 0.828316
v 0.915847 0.771556 0.828316
v 1.000000 -1.000000 0.000000
v 1.000000 1.000000 0.000000
v 0.000000 -1.000000 0.000000
v 0.915847 -0.771556 0.000000
v 0.915847 0.771556 0.000000
v 0.770956 0.862860 0.000000
v 0.770956 0.862860 0.770956
v 0.000000 0.862860 0.770956
v 0.000000 0.862860 0.000000
v -1.000000 -1.000000 1.000000
v -1.000000 1.000000 1.000000
v -0.800313 0.800313 0.871157
v -0.800313 -0.800313 0.871157
v -0.915847 -0.771556 0.828316
v -0.915847 0.771556 0.828316
v -1.000000 -1.000000 0.000000
v -1.000000 1.000000 0.000000
v -0.915847 -0.771556 0.000000
v -0.915847 0.771556 0.000000
v -0.770956 0.862860 0.000000
v -0.770956 0.862860 0.770956
v 1.000000 -1.000000 -1.000000
v 1.000000 1.000000 -1.000000
v 0.800313 0.800313 -0.871157
v 0.800313 -0.800313 -0.871157
v 0.000000 -1.000000 -1.000000
v 0.000000 1.000000 -1.000000
v 0.000000 -0.800313 -0.871157
v 0.000000 0.800313 -0.871157
v 0.915847 -0.771556 -0.828316
v 0.915847 0.771556 -0.828316
v 0.770956 0.862860 -0.770956
v 0.000000 0.862860 -0.770956
v -1.000000 -1.000000 -1.000000
v -1.000000 1.000000 -1.000000
v -0.800313 0.800313 -0.871157
v -0.800313 -0.800313 -0.871157
v -0.915847 -0.771556 -0.828316
v -0.915847 0.771556 -0.828316
v -0.770956 0.862860 -0.770956
vn -0.0000 0.5422 0.8403
vn -0.0000 -1.0000 -0.0000
vn -0.5422 -0.0000 0.8403
vn -0.0000 -0.5422 0.8403
vn -0.0000 -0.0000 1.0000
vn -0.5137 0.8580 -0.0000
vn 1.0000 -0.0000 -0.0000
vn 0.9384 -0.3457 -0.0000
vn 0.8979 -0.0000 -0.4401
vn 0.9384 0.3457 -0.0000
vn -0.0000 1.0000 -0.0000
vn -0.0000 0.8580 -0.5137
vn 0.5422 -0.0000 0.8403
vn 0.5137 0.8580 -0.0000
vn -1.0000 -0.0000 -0.0000
vn -0.9384 -0.3457 -0.0000
vn -0.8979 -0.0000 -0.4401
vn -0.9384 0.3457 -0.0000
vn -0.0000 0.5422 -0.8403
vn -0.5422 -0.0000 -0.8403
vn -0.0000 -0.5422 -0.8403
vn -0.0000 -0.0000 -1.0000
vn 0.8979 -0.0000 0.4401
vn -0.0000 0.8580 0.5137
vn 0.5422 -0.0000 -0.8403
vn -0.8979 -0.0000 0.4401
vt 0.250000 0.750000
vt 0.375000 0.750000
vt 0.250000 0.625000
vt 0.375000 0.625000
vt 0.625000 0.750000
vt 0.750000 0.750000
vt 0.625000 0.875000
vt 0.375000 0.875000
vt 0.625000 0.625000
vt 0.750000 0.625000
s 0
usemtl Materiais
f 5/1/1 1/2/1 4/2/1 7/1/1
f 13/3/2 11/4/2 1/2/2 5/1/2
f 1/2/3 2/5/3 3/5/3 4/2/3
f 2/5/4 6/6/4 8/6/4 3/5/4
f 4/2/5 3/5/5 8/7/5 7/8/5
f 2/5/6 12/9/6 16/9/6 17/5/6
f 14/4/7 15/9/7 10/5/7 9/2/7
f 12/9/8 2/5/8 10/5/8 15/9/8
f 2/5/9 1/2/9 9/2/9 10/5/9
f 1/2/10 11/4/10 14/4/10 9/2/10
f 16/9/11 19/10/11 18/6/11 17/5/11
f 6/6/12 2/5/12 17/5/12 18/6/12
f 5/1/1 7/1/1 23/2/1 20/2/1
f 13/3/2 5/1/2 20/2/2 26/4/2
f 20/2/13 23/2/13 22/5/13 21/5/13
f 21/5/4 22/5/4 8/6/4 6/6/4
f 23/2/5 7/8/5 8/7/5 22/5/5
f 21/5/14 31/5/14 30/9/14 27/9/14
f 28/4/15 24/2/15 25/5/15 29/9/15
f 27/9/16 29/9/16 25/5/16 21/5/16
f 21/5/17 25/5/17 24/2/17 20/2/17
f 20/2/18 24/2/18 28/4/18 26/4/18
f 30/9/11 31/5/11 18/6/11 19/10/11
f 6/6/12 18/6/12 31/5/12 21/5/12
f 36/1/19 38/1/19 35/2/19 32/2/19
f 13/3/2 36/1/2 32/2/2 11/4/2
f 32/2/20 35/2/20 34/5/20 33/5/20
f 33/5/21 34/5/21 39/6/21 37/6/21
f 35/2/22 38/8/22 39/7/22 34/5/22
f 33/5/6 42/5/6 16/9/6 12/9/6
f 14/4/7 40/2/7 41/5/7 15/9/7
f 12/9/8 15/9/8 41/5/8 33/5/8
f 33/5/23 41/5/23 40/2/23 32/2/23
f 32/2/10 40/2/10 14/4/10 11/4/10
f 16/9/11 42/5/11 43/6/11 19/10/11
f 37/6/24 43/6/24 42/5/24 33/5/24
f 36/1/19 44/2/19 47/2/19 38/1/19
f 13/3/2 26/4/2 44/2/2 36/1/2
f 44/2/25 45/5/25 46/5/25 47/2/25
f 45/5/21 37/6/21 39/6/21 46/5/21
f 47/2/22 46/5/22 39/7/22 38/8/22
f 45/5/14 27/9/14 30/9/14 50/5/14
f 28/4/15 29/9/15 49/5/15 48/2/15
f 27/9/16 45/5/16 49/5/16 29/9/16
f 45/5/26 44/2/26 48/2/26 49/5/26
f 44/2/18 26/4/18 28/4/18 48/2/18
f 30/9/11 19/10/11 43/6/11 50/5/11
f 37/6/24 45/5/24 50/5/24 43/6/24
