# Blender 5.0.1
# www.blender.org
mtllib flor_da_vida.mtl
o Cilindro
v 0.000000 -0.004944 -0.004944
v 0.001709 0.001346 -0.004944
v 0.005025 -0.004944 -0.003496
v 0.004396 0.001346 -0.003496
v 0.006474 -0.004944 0.000000
v 0.005844 0.001346 0.000000
v 0.005025 -0.004944 0.003496
v 0.004396 0.001346 0.003496
v 0.000000 -0.004944 0.004944
v 0.001709 0.001346 0.004944
v -0.004486 -0.004944 0.003496
v -0.005205 0.001346 0.003496
v -0.005934 -0.004944 0.000000
v -0.006653 0.001346 0.000000
v -0.004486 -0.004944 -0.003496
v -0.005205 0.001346 -0.003496
v -0.001889 0.009082 -0.004944
v 0.000798 0.009082 -0.003496
v 0.002246 0.009082 0.000000
v 0.000798 0.009082 0.003496
v -0.001889 0.009082 0.004944
v -0.008803 0.009082 0.003496
v -0.010252 0.009082 0.000000
v -0.008803 0.009082 -0.003496
v -0.003903 0.015019 -0.004275
v -0.001580 0.015019 -0.003023
v -0.000328 0.015019 0.000000
v -0.001580 0.015019 0.003023
v -0.003903 0.015019 0.004275
v -0.009881 0.015019 0.003023
v -0.011133 0.015019 0.000000
v -0.009881 0.015019 -0.003023
v -0.004930 0.022485 -0.003875
v -0.002824 0.022485 -0.002740
v -0.001689 0.022485 0.000000
v -0.002824 0.022485 0.002740
v -0.004930 0.022485 0.003875
v -0.010350 0.022485 0.002740
v -0.011485 0.022485 0.000000
v -0.010350 0.022485 -0.002740
v -0.004257 0.028602 -0.003449
v -0.002383 0.028602 -0.002439
v -0.001373 0.028602 0.000000
v -0.002383 0.028602 0.002439
v -0.004257 0.028602 0.003449
v -0.009081 0.028602 0.002439
v -0.010091 0.028602 0.000000
v -0.009081 0.028602 -0.002439
v -0.002368 0.034538 -0.003449
v -0.000494 0.034538 -0.002439
v 0.000516 0.034538 0.000000
v -0.000494 0.034538 0.002439
v -0.002368 0.034538 0.003449
v -0.007192 0.034538 0.002439
v -0.008202 0.034538 0.000000
v -0.007192 0.034538 -0.002439
v 0.000690 0.041105 -0.003449
v 0.002564 0.041105 -0.002439
v 0.003574 0.041105 0.000000
v 0.002564 0.041105 0.002439
v 0.000690 0.041105 0.003449
v -0.004133 0.041105 0.002439
v -0.005144 0.041105 0.000000
v -0.004133 0.041105 -0.002439
v 0.002773 0.047491 -0.002933
v 0.004367 0.047491 -0.002074
v 0.005226 0.047491 0.000000
v 0.004367 0.047491 0.002074
v 0.002773 0.047491 0.002933
v -0.001328 0.047491 0.002074
v -0.002187 0.047491 0.000000
v -0.001328 0.047491 -0.002074
v 0.002882 0.054058 -0.002432
v 0.004204 0.054058 -0.001720
v 0.004916 0.054058 0.000000
v 0.004204 0.054058 0.001720
v 0.002882 0.054058 0.002432
v -0.000518 0.054058 0.001720
v -0.001231 0.054058 0.000000
v -0.000518 0.054058 -0.001720
v 0.003991 0.007587 -0.001197
v 0.005250 0.004276 -0.004693
v 0.000813 0.015710 -0.001197
v 0.000498 0.016584 -0.004220
v 0.005068 0.011256 -0.001198
v 0.006327 0.007198 -0.004695
v 0.001890 0.021213 -0.001198
v 0.001575 0.022285 -0.004221
v 0.010292 0.015924 -0.001200
v 0.011550 0.009785 -0.004696
v 0.007114 0.030987 -0.001200
v 0.006798 0.032609 -0.004223
v 0.021265 0.018339 -0.000925
v 0.022736 0.011161 -0.005012
v 0.017549 0.040323 -0.000925
v 0.017181 0.042219 -0.004459
v 0.035324 0.025327 -0.000591
v 0.036795 0.018149 -0.004678
v 0.031608 0.047311 -0.000591
v 0.031240 0.049207 -0.004125
v 0.045162 0.042176 -0.000296
v 0.046309 0.034998 -0.004383
v 0.044037 0.049480 -0.000296
v 0.043668 0.051376 -0.003830
v 0.049974 0.051593 -0.002243
v 0.001166 0.073830 -0.000000
v -0.000662 0.061700 -0.001219
v -0.001167 0.061700 0.000000
v -0.000662 0.061700 0.001219
v 0.001749 0.061700 0.001724
v 0.002685 0.061700 0.001219
v 0.003190 0.061700 0.000000
v 0.001749 0.061700 -0.001724
v 0.002685 0.061700 -0.001219
v 0.000971 0.067270 -0.001724
v -0.001439 0.067270 -0.001219
v -0.001944 0.067270 0.000000
v -0.001439 0.067270 0.001219
v 0.000971 0.067270 0.001724
v 0.001908 0.067270 0.001219
v 0.002413 0.067270 0.000000
v 0.001908 0.067270 -0.001219
v 0.002008 0.071544 -0.001724
v -0.000403 0.071544 -0.001219
v -0.000908 0.071544 0.000000
v -0.000403 0.071544 0.001219
v 0.002008 0.071544 0.001724
v 0.002944 0.071544 0.001219
v 0.003449 0.071544 0.000000
v 0.002944 0.071544 -0.001219
v 0.002008 0.075430 -0.001724
v -0.000403 0.075430 -0.001219
v -0.000908 0.075430 0.000000
v -0.000403 0.075430 0.001219
v 0.002008 0.075430 0.001724
v 0.002944 0.075430 0.001219
v 0.003449 0.075430 0.000000
v 0.002944 0.075430 -0.001219
vn 0.3514 -0.0302 -0.9357
vn 0.9200 0.0921 -0.3811
vn 0.9200 0.0921 0.3811
vn 0.3514 -0.0302 0.9357
vn -0.2462 0.0194 0.9690
vn -0.9188 -0.1051 0.3806
vn 0.4633 0.2155 0.8596
vn -0.9188 -0.1051 -0.3806
vn -0.2462 0.0194 -0.9690
vn -0.0000 -1.0000 -0.0000
vn 0.4592 0.2519 -0.8519
vn -0.8488 -0.3948 -0.3516
vn 0.8488 0.3948 -0.3516
vn -0.2041 -0.0949 0.9743
vn -0.2041 -0.0949 -0.9743
vn 0.4633 0.2155 -0.8596
vn 0.8488 0.3948 0.3516
vn -0.8488 -0.3948 0.3516
vn -0.9230 -0.0436 -0.3823
vn -0.2048 0.0408 -0.9779
vn -0.9153 -0.1358 0.3791
vn 0.4592 0.2519 0.8519
vn -0.3874 -0.1038 -0.9160
vn -0.9153 -0.1358 -0.3791
vn -0.2048 0.0408 0.9779
vn 0.8576 0.3718 0.3552
vn 0.9228 -0.0477 -0.3822
vn -0.2049 0.0241 0.9785
vn 0.9110 0.1661 0.3774
vn 0.4715 0.1117 -0.8748
vn -0.2049 0.0241 -0.9785
vn -0.9230 -0.0436 0.3823
vn 0.4715 0.1117 0.8748
vn 0.9110 0.1661 -0.3774
vn -0.2046 0.0651 -0.9767
vn -0.9041 0.2060 -0.3745
vn -0.2042 0.0904 0.9748
vn 0.9228 -0.0477 0.3822
vn 0.4745 0.0092 -0.8802
vn -0.2042 0.0904 -0.9748
vn -0.9041 0.2060 0.3745
vn 0.4745 0.0092 0.8802
vn 0.8486 -0.3953 0.3515
vn -0.8864 0.2820 0.3671
vn 0.4692 -0.1493 0.8704
vn 0.8864 -0.2820 -0.3671
vn -0.8864 0.2820 -0.3671
vn -0.2046 0.0651 0.9767
vn 0.8864 -0.2820 0.3671
vn 0.4692 -0.1493 -0.8704
vn -0.8494 0.3932 -0.3519
vn 0.4633 -0.2158 -0.8595
vn -0.2041 0.0950 -0.9743
vn -0.8486 0.3953 0.3515
vn 0.4633 -0.2158 0.8595
vn 0.8486 -0.3953 -0.3515
vn -0.8486 0.3953 -0.3515
vn -0.2041 0.0950 0.9743
vn 0.4737 0.0592 0.8787
vn -0.2028 0.1445 0.9685
vn 0.8986 -0.2323 0.3722
vn 0.4728 -0.0833 -0.8772
vn -0.2028 0.1445 -0.9685
vn -0.8494 0.3932 0.3519
vn 0.4728 -0.0833 0.8772
vn 0.8986 -0.2323 -0.3722
vn 0.9044 0.2043 -0.3746
vn 0.9230 0.0435 -0.3823
vn -0.9156 0.1334 -0.3793
vn -0.2044 0.0778 0.9758
vn 0.9230 0.0435 0.3823
vn 0.4737 0.0592 -0.8787
vn -0.2044 0.0778 -0.9758
vn -0.9156 0.1334 0.3793
vn 0.0005 0.0002 1.0000
vn -0.5945 -0.7204 0.3572
vn -0.4325 0.8697 0.2379
vn 0.6582 0.2693 0.7030
vn -0.0238 0.0190 -0.9995
vn -0.9692 0.1864 0.1610
vn -0.0583 0.0143 -0.9982
vn 0.7900 -0.2580 0.5562
vn -0.0321 0.0129 -0.9994
vn 0.3313 -0.4766 0.8143
vn 0.0003 0.0001 1.0000
vn -0.8503 0.4420 0.2856
vn -0.0219 -0.0037 0.9998
vn 0.0837 -0.4801 0.8732
vn -0.0234 -0.0043 0.9997
vn -0.6104 0.6698 0.4229
vn 0.0058 0.0243 -0.9997
vn -0.4029 0.7884 0.4650
vn 0.0137 0.0203 -0.9997
vn 0.2043 -0.4525 0.8681
vn 0.2966 0.0457 0.9539
vn 0.5558 -0.3325 0.7619
vn -0.0232 -0.0038 0.9997
vn -0.1619 0.8624 0.4796
vn -0.1504 0.8646 0.4795
vn 0.2410 0.0716 -0.9679
vn 0.7338 -0.2438 0.6341
vn 0.9163 0.1279 0.3795
vn -0.9239 0.0077 -0.3827
vn -0.2046 0.0602 0.9770
vn 0.9044 0.2043 0.3746
vn 0.4691 0.1502 -0.8703
vn -0.2046 0.0602 -0.9770
vn -0.9239 0.0077 0.3827
vn 0.4691 0.1502 0.8703
vn -0.9015 0.2186 0.3734
vn -0.2049 -0.0286 0.9784
vn -0.9163 -0.1279 -0.3795
vn 0.9163 0.1279 -0.3795
vn 0.4734 0.0661 0.8783
vn -0.9163 -0.1279 0.3795
vn -0.2049 -0.0286 -0.9784
vn 0.4734 0.0661 -0.8783
vn 0.9239 -0.0000 -0.3827
vn -0.2047 0.0496 -0.9776
vn 0.4714 -0.1143 -0.8745
vn 0.9015 -0.2186 0.3734
vn -0.2047 0.0496 0.9776
vn -0.9015 0.2186 -0.3734
vn 0.9015 -0.2186 -0.3734
vn 0.4714 -0.1143 0.8745
vn -0.0000 1.0000 -0.0000
vn 0.4745 -0.0000 0.8803
vn -0.9239 -0.0000 0.3827
vn -0.2050 -0.0000 -0.9788
vn 0.4745 -0.0000 -0.8803
vn 0.9239 -0.0000 0.3827
vn -0.2050 -0.0000 0.9788
vn -0.9239 -0.0000 -0.3827
vt 1.000000 0.500000
vt 1.000000 1.000000
vt 0.875000 1.000000
vt 0.875000 0.500000
vt 0.750000 1.000000
vt 0.750000 0.500000
vt 0.625000 1.000000
vt 0.625000 0.500000
vt 0.500000 1.000000
vt 0.500000 0.500000
vt 0.375000 1.000000
vt 0.375000 0.500000
vt 0.250000 1.000000
vt 0.250000 0.500000
vt 0.125000 1.000000
vt 0.125000 0.500000
vt 0.000000 1.000000
vt 0.000000 0.500000
vt 0.750000 0.490000
vt 0.919706 0.419706
vt 0.990000 0.250000
vt 0.919706 0.080294
vt 0.750000 0.010000
vt 0.580294 0.080294
vt 0.510000 0.250000
vt 0.580294 0.419706
vt 0.419706 0.419706
vt 0.250000 0.490000
vt 0.080294 0.419706
vt 0.010000 0.250000
vt 0.080294 0.080294
vt 0.250000 0.010000
vt 0.419706 0.080294
vt 0.490000 0.250000
s 0
usemtl Materiais.001
f 1/1/1 2/2/1 4/3/1 3/4/1
f 3/4/2 4/3/2 6/5/2 5/6/2
f 5/6/3 6/5/3 8/7/3 7/8/3
f 7/8/4 8/7/4 10/9/4 9/10/4
f 9/10/5 10/9/5 12/11/5 11/12/5
f 11/12/6 12/11/6 14/13/6 13/14/6
f 10/9/7 8/7/7 20/7/7 21/9/7
f 13/14/8 14/13/8 16/15/8 15/16/8
f 15/16/9 16/15/9 2/17/9 1/18/9
f 1/19/10 3/20/10 5/21/10 7/22/10 9/23/10 11/24/10 13/25/10 15/26/10
f 18/3/11 17/2/11 25/2/11 26/3/11
f 16/15/12 14/13/12 23/13/12 24/15/12
f 6/5/13 4/3/13 18/3/13 19/5/13
f 12/11/14 10/9/14 21/9/14 22/11/14
f 2/17/15 16/15/15 24/15/15 17/17/15
f 4/3/16 2/2/16 17/2/16 18/3/16
f 8/7/17 6/5/17 19/5/17 20/7/17
f 14/13/18 12/11/18 22/11/18 23/13/18
f 32/15/19 31/13/19 39/13/19 40/15/19
f 17/17/20 24/15/20 32/15/20 25/17/20
f 23/13/21 22/11/21 30/11/21 31/13/21
f 21/9/22 20/7/22 28/7/22 29/9/22
f 18/3/23 26/3/23 84/3/23 82/3/23
f 24/15/24 23/13/24 31/13/24 32/15/24
f 22/11/25 21/9/25 29/9/25 30/11/25
f 20/7/26 19/5/26 27/5/26 28/7/26
f 35/5/27 34/3/27 42/3/27 43/5/27
f 30/11/28 29/9/28 37/9/28 38/11/28
f 28/7/29 27/5/29 35/5/29 36/7/29
f 26/3/30 25/2/30 33/2/30 34/3/30
f 25/17/31 32/15/31 40/15/31 33/17/31
f 31/13/32 30/11/32 38/11/32 39/13/32
f 29/9/33 28/7/33 36/7/33 37/9/33
f 27/5/34 26/3/34 34/3/34 35/5/34
f 41/17/35 48/15/35 56/15/35 49/17/35
f 40/15/36 39/13/36 47/13/36 48/15/36
f 38/11/37 37/9/37 45/9/37 46/11/37
f 36/7/38 35/5/38 43/5/38 44/7/38
f 34/3/39 33/2/39 41/2/39 42/3/39
f 33/17/40 40/15/40 48/15/40 41/17/40
f 39/13/41 38/11/41 46/11/41 47/13/41
f 37/9/42 36/7/42 44/7/42 45/9/42
f 52/7/43 51/5/43 59/5/43 60/7/43
f 47/13/44 46/11/44 54/11/44 55/13/44
f 45/9/45 44/7/45 52/7/45 53/9/45
f 43/5/46 42/3/46 50/3/46 51/5/46
f 48/15/47 47/13/47 55/13/47 56/15/47
f 46/11/48 45/9/48 53/9/48 54/11/48
f 44/7/49 43/5/49 51/5/49 52/7/49
f 42/3/50 41/2/50 49/2/50 50/3/50
f 64/15/51 63/13/51 71/13/51 72/15/51
f 50/3/52 49/2/52 57/2/52 58/3/52
f 49/17/53 56/15/53 64/15/53 57/17/53
f 55/13/54 54/11/54 62/11/54 63/13/54
f 53/9/55 52/7/55 60/7/55 61/9/55
f 51/5/56 50/3/56 58/3/56 59/5/56
f 56/15/57 55/13/57 63/13/57 64/15/57
f 54/11/58 53/9/58 61/9/58 62/11/58
f 69/9/59 68/7/59 76/7/59 77/9/59
f 62/11/60 61/9/60 69/9/60 70/11/60
f 60/7/61 59/5/61 67/5/61 68/7/61
f 58/3/62 57/2/62 65/2/62 66/3/62
f 57/17/63 64/15/63 72/15/63 65/17/63
f 63/13/64 62/11/64 70/11/64 71/13/64
f 61/9/65 60/7/65 68/7/65 69/9/65
f 59/5/66 58/3/66 66/3/66 67/5/66
f 75/5/67 74/3/67 114/3/67 112/5/67
f 67/5/68 66/3/68 74/3/68 75/5/68
f 72/15/69 71/13/69 79/13/69 80/15/69
f 70/11/70 69/9/70 77/9/70 78/11/70
f 68/7/71 67/5/71 75/5/71 76/7/71
f 66/3/72 65/2/72 73/2/72 74/3/72
f 65/17/73 72/15/73 80/15/73 73/17/73
f 71/13/74 70/11/74 78/11/74 79/13/74
f 83/5/75 81/5/75 85/5/75 87/5/75
f 19/5/76 18/3/76 82/3/76 81/5/76
f 26/3/77 27/5/77 83/5/77 84/3/77
f 27/5/78 19/5/78 81/5/78 83/5/78
f 86/3/79 88/3/79 92/3/79 90/3/79
f 84/3/80 83/5/80 87/5/80 88/3/80
f 82/3/81 84/3/81 88/3/81 86/3/81
f 81/5/82 82/3/82 86/3/82 85/5/82
f 90/3/83 92/3/83 96/3/83 94/3/83
f 85/5/84 86/3/84 90/3/84 89/5/84
f 87/5/85 85/5/85 89/5/85 91/5/85
f 88/3/86 87/5/86 91/5/86 92/3/86
f 95/5/87 93/5/87 97/5/87 99/5/87
f 89/5/88 90/3/88 94/3/88 93/5/88
f 91/5/89 89/5/89 93/5/89 95/5/89
f 92/3/90 91/5/90 95/5/90 96/3/90
f 98/3/91 100/3/91 104/3/91 102/3/91
f 96/3/92 95/5/92 99/5/92 100/3/92
f 94/3/93 96/3/93 100/3/93 98/3/93
f 93/5/94 94/3/94 98/3/94 97/5/94
f 103/5/95 101/5/95 105/5/95
f 97/5/96 98/3/96 102/3/96 101/5/96
f 99/5/97 97/5/97 101/5/97 103/5/97
f 100/3/98 99/5/98 103/5/98 104/3/98
f 104/3/99 103/5/99 105/3/99
f 102/3/100 104/3/100 105/3/100
f 101/5/101 102/3/101 105/5/101
f 111/7/102 112/5/102 121/5/102 120/7/102
f 80/15/103 79/13/103 108/13/103 107/15/103
f 78/11/104 77/9/104 110/9/104 109/11/104
f 76/7/105 75/5/105 112/5/105 111/7/105
f 74/3/106 73/2/106 113/2/106 114/3/106
f 73/17/107 80/15/107 107/15/107 113/17/107
f 79/13/108 78/11/108 109/11/108 108/13/108
f 77/9/109 76/7/109 111/7/109 110/9/109
f 117/13/110 118/11/110 126/11/110 125/13/110
f 109/11/111 110/9/111 119/9/111 118/11/111
f 107/15/112 108/13/112 117/13/112 116/15/112
f 112/5/113 114/3/113 122/3/113 121/5/113
f 110/9/114 111/7/114 120/7/114 119/9/114
f 108/13/115 109/11/115 118/11/115 117/13/115
f 113/17/116 107/15/116 116/15/116 115/17/116
f 114/3/117 113/2/117 115/2/117 122/3/117
f 129/5/118 130/3/118 138/3/118 137/5/118
f 115/17/119 116/15/119 124/15/119 123/17/119
f 122/3/120 115/2/120 123/2/120 130/3/120
f 120/7/121 121/5/121 129/5/121 128/7/121
f 118/11/122 119/9/122 127/9/122 126/11/122
f 116/15/123 117/13/123 125/13/123 124/15/123
f 121/5/124 122/3/124 130/3/124 129/5/124
f 119/9/125 120/7/125 128/7/125 127/9/125
f 138/27/126 131/28/126 132/29/126 133/30/126 134/31/126 135/32/126 136/33/126 137/34/126
f 127/9/127 128/7/127 136/7/127 135/9/127
f 125/13/128 126/11/128 134/11/128 133/13/128
f 123/17/129 124/15/129 132/15/129 131/17/129
f 130/3/130 123/2/130 131/2/130 138/3/130
f 128/7/131 129/5/131 137/5/131 136/7/131
f 126/11/132 127/9/132 135/9/132 134/11/132
f 124/15/133 125/13/133 133/13/133 132/15/133
o Esfera_UV
v 0.001119 0.071580 0.000000
v 0.001119 0.073779 0.005307
v 0.001119 0.079086 0.007505
v 0.001119 0.084393 0.005307
v 0.001119 0.086591 0.000000
v -0.002634 0.073779 0.003753
v -0.004188 0.079086 0.005307
v -0.002634 0.084393 0.003753
v -0.004188 0.073779 0.000000
v -0.006386 0.079086 0.000000
v -0.004188 0.084393 0.000000
v -0.002634 0.073779 -0.003753
v -0.004188 0.079086 -0.005307
v -0.002634 0.084393 -0.003753
v 0.001119 0.073779 -0.005307
v 0.001119 0.079086 -0.007505
v 0.001119 0.084393 -0.005307
v 0.004872 0.073779 -0.003753
v 0.006426 0.079086 -0.005307
v 0.004872 0.084393 -0.003753
v 0.006426 0.073779 0.000000
v 0.008624 0.079086 0.000000
v 0.006426 0.084393 0.000000
v 0.004872 0.073779 0.003753
v 0.006426 0.079086 0.005307
v 0.004872 0.084393 0.003753
v 0.026945 0.084090 0.005291
v 0.023122 0.093319 0.005291
v 0.023122 0.084090 0.014520
v 0.020419 0.093319 0.011817
v 0.005238 0.082878 0.023760
v 0.005238 0.092648 0.019714
v 0.015008 0.082878 0.019714
v 0.012146 0.092648 0.016852
v 0.019052 0.081898 -0.013442
v 0.016044 0.092165 -0.010435
v 0.023304 0.081898 -0.003175
v 0.019052 0.092165 -0.003175
v 0.005068 0.082655 -0.024372
v 0.005068 0.093147 -0.020026
v 0.015560 0.082655 -0.020026
v 0.012487 0.093147 -0.016953
v -0.010967 0.082755 -0.017576
v -0.008564 0.090960 -0.015173
v -0.002762 0.082755 -0.020975
v -0.002762 0.090960 -0.017576
v -0.022610 0.083147 -0.004357
v -0.018740 0.092488 -0.004357
v -0.018740 0.083147 -0.013698
v -0.016004 0.092488 -0.010962
v -0.016242 0.081867 0.013513
v -0.013781 0.090266 0.011053
v -0.019721 0.081867 0.005114
v -0.016242 0.090266 0.005114
v -0.001940 0.081753 0.022466
v -0.001940 0.092416 0.018049
v -0.012604 0.081753 0.018049
v -0.009480 0.092416 0.014926
vn -0.1566 0.9125 0.3780
vn -0.3574 -0.3574 0.8629
vn 0.2016 0.8499 -0.4868
vn -0.1566 -0.9125 0.3780
vn -0.3780 0.9125 0.1566
vn -0.8629 -0.3574 0.3574
vn 0.5725 0.0715 0.8168
vn -0.3780 -0.9125 0.1566
vn -0.3780 0.9125 -0.1566
vn -0.8629 -0.3574 -0.3574
vn 0.4363 0.8815 0.1807
vn -0.3780 -0.9125 -0.1566
vn -0.1566 0.9125 -0.3780
vn -0.3574 -0.3574 -0.8629
vn 0.1745 0.8900 0.4212
vn -0.1566 -0.9125 -0.3780
vn 0.1566 -0.9125 -0.3780
vn 0.1566 0.9125 -0.3780
vn 0.3574 -0.3574 -0.8629
vn -0.1918 0.8653 0.4632
vn -0.5526 0.0811 -0.8295
vn 0.3780 -0.9125 -0.1566
vn 0.3780 0.9125 -0.1566
vn 0.8629 -0.3574 -0.3574
vn -0.4207 0.8903 -0.1743
vn 0.3780 -0.9125 0.1566
vn 0.3780 0.9125 0.1566
vn 0.8629 -0.3574 0.3574
vn 0.0853 -0.9749 0.2058
vn 0.1566 -0.9125 0.3780
vn 0.1566 0.9125 0.3780
vn 0.3574 -0.3574 0.8629
vn 0.8629 0.3574 0.3574
vn 0.2498 0.1035 -0.9628
vn 0.2359 -0.9669 0.0977
vn -0.5041 0.1035 0.8574
vn 0.3574 0.3574 0.8629
vn -0.9701 0.0929 0.2242
vn 0.8445 0.0929 -0.5275
vn -0.1856 0.8745 -0.4480
vn 0.8629 0.3574 -0.3574
vn 0.1727 -0.9824 -0.0715
vn 0.1958 0.0811 0.9773
vn -0.4773 0.8562 0.1977
vn 0.3574 0.3574 -0.8629
vn 0.8369 0.0868 0.5404
vn 0.0782 -0.9789 -0.1889
vn -0.9739 0.0868 -0.2097
vn -0.3574 0.3574 -0.8629
vn -0.8572 0.1033 0.5045
vn -0.0975 -0.9670 -0.2353
vn 0.9629 0.1033 -0.2494
vn -0.8629 0.3574 -0.3574
vn -0.2353 0.0975 0.9670
vn -0.2189 -0.9715 -0.0907
vn 0.5174 0.0975 -0.8502
vn -0.8629 0.3574 0.3574
vn -0.1767 -0.9815 0.0732
vn -0.3297 0.1366 -0.9341
vn 0.3781 0.9124 -0.1566
vn -0.3574 0.3574 0.8629
vn 0.9794 0.0773 0.1865
vn -0.0670 -0.9845 0.1618
vn -0.8244 0.0773 -0.5607
vt 0.687500 0.000000
vt 0.750000 0.250000
vt 0.625000 0.250000
vt 0.750000 0.500000
vt 0.750000 0.750000
vt 0.625000 0.750000
vt 0.625000 0.500000
vt 0.687500 1.000000
vt 0.562500 0.000000
vt 0.500000 0.250000
vt 0.500000 0.750000
vt 0.500000 0.500000
vt 0.562500 1.000000
vt 0.437500 0.000000
vt 0.375000 0.250000
vt 0.375000 0.750000
vt 0.375000 0.500000
vt 0.437500 1.000000
vt 0.312500 0.000000
vt 0.250000 0.250000
vt 0.250000 0.750000
vt 0.250000 0.500000
vt 0.312500 1.000000
vt 0.187500 1.000000
vt 0.125000 0.750000
vt 0.187500 0.000000
vt 0.125000 0.250000
vt 0.125000 0.500000
vt 0.062500 1.000000
vt 0.000000 0.750000
vt 0.062500 0.000000
vt 0.000000 0.250000
vt 0.000000 0.500000
vt 0.875000 0.250000
vt 1.000000 0.250000
vt 1.000000 0.750000
vt 0.937500 1.000000
vt 0.875000 0.750000
vt 0.937500 0.000000
vt 1.000000 0.500000
vt 0.875000 0.500000
vt 0.812500 1.000000
vt 0.812500 0.000000
s 0
usemtl Materiais
f 143/35/134 146/37/134 142/36/134
f 141/38/135 145/41/135 144/40/135 140/39/135
f 146/37/136 196/37/136 194/36/136 142/36/136
f 140/39/137 144/40/137 139/42/137
f 143/43/138 149/44/138 146/37/138
f 145/41/139 148/46/139 147/45/139 144/40/139
f 146/37/140 190/37/140 189/41/140 145/41/140
f 144/40/141 147/45/141 139/47/141
f 143/48/142 152/49/142 149/44/142
f 148/46/143 151/51/143 150/50/143 147/45/143
f 152/49/144 188/49/144 186/44/144 149/44/144
f 147/45/145 150/50/145 139/52/145
f 143/53/146 155/54/146 152/49/146
f 151/51/147 154/56/147 153/55/147 150/50/147
f 155/54/148 184/54/148 182/49/148 152/49/148
f 150/50/149 153/55/149 139/57/149
f 153/55/150 156/59/150 139/58/150
f 143/60/151 158/61/151 155/54/151
f 154/56/152 157/62/152 156/59/152 153/55/152
f 158/61/153 180/61/153 178/54/153 155/54/153
f 158/61/154 174/61/154 173/62/154 157/62/154
f 156/59/155 159/64/155 139/63/155
f 143/65/156 161/66/156 158/61/156
f 157/62/157 160/67/157 159/64/157 156/59/157
f 164/68/158 168/68/158 166/69/158 161/69/158
f 159/70/159 162/72/159 139/71/159
f 143/73/160 164/68/160 161/69/160
f 160/74/161 163/75/161 162/72/161 159/70/161
f 163/75/162 171/75/162 169/38/162 141/38/162
f 162/72/163 140/39/163 139/76/163
f 143/77/164 142/36/164 164/68/164
f 163/75/165 141/38/165 140/39/165 162/72/165
f 166/69/166 168/68/166 167/75/166 165/74/166
f 161/66/167 166/66/167 165/67/167 160/67/167
f 160/74/168 165/74/168 167/75/168 163/75/168
f 163/75/169 167/75/169 168/68/169 164/68/169
f 172/68/170 170/36/170 169/38/170 171/75/170
f 141/38/171 169/38/171 170/36/171 142/36/171
f 164/68/172 172/68/172 171/75/172 163/75/172
f 142/36/173 170/36/173 172/68/173 164/68/173
f 174/61/174 176/66/174 175/67/174 173/62/174
f 157/62/175 173/62/175 175/67/175 160/67/175
f 160/67/176 175/67/176 176/66/176 161/66/176
f 161/66/177 176/66/177 174/61/177 158/61/177
f 178/54/178 180/61/178 179/62/178 177/56/178
f 157/62/179 179/62/179 180/61/179 158/61/179
f 154/56/180 177/56/180 179/62/180 157/62/180
f 155/54/181 178/54/181 177/56/181 154/56/181
f 182/49/182 184/54/182 183/56/182 181/51/182
f 152/49/183 182/49/183 181/51/183 151/51/183
f 151/51/184 181/51/184 183/56/184 154/56/184
f 154/56/185 183/56/185 184/54/185 155/54/185
f 186/44/186 188/49/186 187/51/186 185/46/186
f 149/44/187 186/44/187 185/46/187 148/46/187
f 148/46/188 185/46/188 187/51/188 151/51/188
f 151/51/189 187/51/189 188/49/189 152/49/189
f 190/37/190 192/44/190 191/46/190 189/41/190
f 145/41/191 189/41/191 191/46/191 148/46/191
f 148/46/192 191/46/192 192/44/192 149/44/192
f 149/44/193 192/44/193 190/37/193 146/37/193
f 194/36/194 196/37/194 195/41/194 193/38/194
f 142/36/195 194/36/195 193/38/195 141/38/195
f 141/38/196 193/38/196 195/41/196 145/41/196
f 145/41/197 195/41/197 196/37/197 146/37/197
